<svg width="150" height="150" xmlns="http://www.w3.org/2000/svg" xmlns:xlink="http://www.w3.org/1999/xlink"><defs><circle id="a" cx="75" cy="75" r="75"/></defs><g fill="none" fill-rule="evenodd"><use fill="#EC1D24" xlink:href="#a"/><g fill="#FEFEFE"><path d="M90.698 80.933c.033-.19.358-.442.59-.559 2.032-1.026 4.197-1.66 6.418-2.119 2.975-.615 5.986-.862 9.018-.872.76-.003.407.548.352.549-2.666.028-5.273.183-7.83.602-2.81.46-5.557 1.236-8.252 2.511-.264.114-.303-.016-.296-.112zm5.08-17.33c0-.613-.003-1.107-.003-1.748l.664.003v1.773h-.657v-.028h-.005zm-.005-4.674h.668v1.77s-.473-.004-.668 0v-1.77zm1.444 2.929l.661-.004v1.757h-.005v.02h-.656v-1.773zm.015-1.16h.664v-1.77h-.664v1.77zm2.101 1.157c0 .6-.003 1.113-.003 1.742h-.002v.034h-.62a2.98 2.98 0 01-.041.002c0-.63.003-1.142.003-1.778h.663zm.007-2.926l.001 1.77h-.695v-1.77h.694zm1.467 2.919v1.749h-.003v.034h-.56l-.106.006c0-.627-.004-1.154-.004-1.782.199-.013.404.01.673-.007zm-.007-2.92v1.77h-.675v-1.77h.675zm.796 8.706s.36-.007.506 0h.15v.007h.005v1.713h-.005v.053h-.656v-1.773zm1.476 1.758h.621V67.66h-.621v1.732zm1.456-1.749h.006v-.01h.656v1.774h-.656v-.001h-.006v-1.763zm1.44 1.764h.656v-1.773h-.656v1.773zm-20.965 16.9h24.634v-8.334c-.478 0-.906.015-1.331-.011-.102-.007-.26-.141-.275-.236-.017-.104.07-.279.165-.337.199-.123.445-.168.65-.285.69-.394 1.104-.964 1.083-1.791-.02-.797-.45-1.335-1.117-1.702a2.666 2.666 0 00-3.352.67c-.096.119-.214.221-.322.331.284-1.166 1.054-1.775 2.14-1.952v-5.833h-5.719v-8.843l-.677-.105-.065-.832h-5.07c-.027.308-.05.563-.07.81-.252.061-.47.114-.72.173v.677l-.001 18.06c0 1.114 0 1.107-1.038 1.438-3.09.985-5.994 2.317-8.431 4.513-.2.18-.45.436-.463.668-.052.965-.021 1.934-.021 2.921z"/><path d="M86.592 78.777h-1.56v3.495c1.72-1.13 1.946-1.648 1.56-3.495M21.207 66.78h2.709v19.508h3.258V66.746h2.827v-2.96h-8.794zm84.11-5.103l-.042-.753-.703-.154-.05-.842h-.718l-.091.878-.649.1-.082.79-.664.092v4.37h3.656V61.79l-.657-.113M90.528 67.19v1.86h-.73v-1.92h.73v.06zm-.73 4.751h.73v-1.919h-.73v1.92zm0 2.892h.73v-1.919h-.73v1.919zm2.746-9.972l-.759.044-.126.845-.188.04-1.282-2.693-1.26 2.704a90.305 90.305 0 01-.196-.07l-.16-.83-.676.065v9.697l-.633.114v5.627c1.888-.835 3.776-1.663 5.654-2.514.15-.069.318-.296.324-.454.03-.876.014-1.753.014-2.683-.713.065-.784-.316-.772-.868.045-2.069.046-4.14.059-6.21.006-.92 0-1.84 0-2.814z"/><path d="M93.846 77.52l.192.12c.12-.158.341-.316.344-.476.025-1.751.015-3.503.015-5.298H93.12v2.246l.727.107v3.3zm-47.09-4.94c-.076 1.4-.606 1.732-2.214 1.554V66.64c1.56-.137 2.113.248 2.209 1.734.09 1.397.082 2.808.005 4.206m2.917-6.165c-.57-1.568-1.752-2.521-3.42-2.631-1.635-.109-3.282-.024-4.978-.024v22.52h3.248v-8.956c.542 0 .993.016 1.442-.003 1.794-.073 3.123-.88 3.734-2.593.986-2.761.98-5.556-.026-8.313m5.277.312h-.01v.012h.01zm7.013 10.56l.957-9.826 1.138 9.826h-2.095zm-.534-13.5l-3.474 22.494h3.027l.703-6.11h2.725l.789 6.118h3.17l-3.58-22.502h-3.36zm10.255 16.998c-.102 1.925-.486 2.335-2.295 2.77 0 .812-.026 1.642.023 2.468.01.162.292.399.485.443 1.703.39 3.376-.53 3.976-2.342.369-1.113.591-2.312.652-3.484.173-3.301.24-6.608.326-9.914.033-1.296.005-2.595.005-3.916h2.15v19.473h3.13V63.78h-7.979c0 2.087.053 4.13-.011 6.168a505.82 505.82 0 01-.462 10.836M59.725 63.785h-4.774v2.942h4.774v-2.942zm48.277 5.912v2.933l1.61.75c.36-2.121.063-2.812-1.61-3.683M51.747 86.264h3.221c0-4.342.003-8.623-.001-12.903-.003-2.207-.018-4.415-.028-6.622h-3.192v19.525zm.051-20.103h2.517V63.79h-2.517zm62.942-.02h2.556v-2.36h-2.556zM4.404 66.126h2.569v-2.422h-2.57zm136.162 17.147h-3.619c1.614-5.378 1.603-10.913 1.853-16.455h1.766v16.455zm-4.387-19.513c-.03.338-.064.62-.076.905-.114 2.661-.207 5.324-.34 7.985-.158 3.168-.63 6.287-1.569 9.326-.233.756-.334 1.668-1.528 1.31v2.97h12.793v-2.982h-1.693V63.76h-7.587zm-125.994.024v22.481h3.213V75.96h2.952v10.329h3.221V63.772H16.34v9.141h-2.998v-9.13zM4.404 86.298H7.63V66.822H4.404zm125.263-12.16a.43.43 0 01-.194-.3c-.568-3.18-1.13-6.362-1.715-9.54-.037-.204-.245-.53-.386-.536-1.06-.045-2.122-.025-3.234-.025.053.285.078.471.123.653 1.29 5.137 2.58 10.274 3.875 15.41.28 1.113-.051 2.128-.592 3.056-.181.31-.67.528-1.057.613-.471.105-.984.025-1.556.025v1.207c-.001 1.822-.001 1.8 1.866 1.795 1.645-.004 2.777-.75 3.38-2.256.3-.746.575-1.518.732-2.304.93-4.634 1.822-9.275 2.726-13.915.274-1.407.544-2.816.82-4.248h-3.108l-1.68 10.365m-11.786-7.398h.011l-.01-.012zm.061 8.858c1.439-.286 2.234.14 2.367 1.508.154 1.572.186 3.175.075 4.75-.1 1.436-.866 1.878-2.442 1.67v-7.928zM114.768 86.3c1.696 0 3.34.08 4.974-.022 1.703-.105 3-.96 3.553-2.635.862-2.613.928-5.276.192-7.928-.477-1.717-1.698-2.639-3.452-2.85-.696-.085-1.399-.111-2.154-.168V66.74h-3.113V86.3zM39.12 66.755v-2.979h-7.483v22.497h7.789v-2.988h-4.564V75.89h3.034v-2.913H34.86v-6.223zm84.042-2.97h-5.27v2.943h5.27v-2.943z"/><path d="M117.881 66.728l.011.012v-.012z"/></g></g></svg>