<svg width="184" height="184" xmlns="http://www.w3.org/2000/svg" xmlns:xlink="http://www.w3.org/1999/xlink"><defs><circle id="a" cx="92" cy="92" r="92"/><path id="c" d="M0 195.698h183.824V0H0z"/></defs><g fill="none" fill-rule="evenodd"><mask id="b" fill="#fff"><use xlink:href="#a"/></mask><use fill="#233E98" xlink:href="#a"/><g mask="url(#b)"><path d="M91.753.511c50.573 0 91.571 40.998 91.571 91.571s-40.998 91.57-91.57 91.57c-50.574 0-91.571-40.997-91.571-91.57C.183 41.51 41.18.512 91.753.512z" fill="#FFF103"/><path d="M91.753.511c50.573 0 91.571 40.998 91.571 91.571s-40.998 91.57-91.57 91.57c-50.574 0-91.571-40.997-91.571-91.57C.183 41.51 41.18.512 91.753.512z" stroke="#FFF103" stroke-width=".216"/><path fill="#FFF103" d="M99.058 184.528l1.809 3.592-8.9 7.349-9.402-7.265 1.48-3.32-5.639 3.388-14.235-.574 6.573-11.09 21.183-2.936 21.642 2.94 5.957 11.08-13.16.578z"/><path stroke="#FFF103" stroke-width=".216" d="M99.058 184.528l1.809 3.592-8.9 7.349-9.402-7.265 1.48-3.32-5.639 3.388-14.235-.574 6.573-11.09 21.183-2.936 21.642 2.94 5.957 11.08-13.16.578z"/><path fill="#233E98" d="M112.456 178.218l4.223 7.857-9.93.436-11.644-5.965 3.582 7.116-6.756 5.578-7.217-5.578 3.172-7.116-9.929 5.965-10.8-.436 4.657-7.857 20.117-2.79z"/><path stroke="#FFF103" stroke-width=".216" d="M112.456 178.218l4.223 7.857-9.93.436-11.644-5.965 3.582 7.116-6.756 5.578-7.217-5.578 3.172-7.116-9.929 5.965-10.8-.436 4.657-7.857 20.117-2.79z"/><path d="M94.694 136.45l.078-3.582-3.814 3.377v.205h3.736zm.078-7.397l.076-14.178-1.1.562-1.076.615-1.022.665-1 .692-.972.717-.947.792-.921.794-.87.87v15.663l7.832-7.192zm3.173 7.397h8.036v-13.77l-8.036 7.423v6.347zm8.036-17.556v-7.217l-1.024.178-1.05.205-1.022.204-1.024.231-1.05.281-1.023.306-1.024.333-1.05.385.231 12.49 8.036-7.396zm3.61 17.556h8.036v-6.347l-8.036-7.422v13.769zm8.036-10.16l.203-13.743-.946-.232-.999-.179-.997-.153-.999-.101-1.024-.104-1.023-.05-1.024-.026-1.024-.025-.203 7.217 8.036 7.395zm11.003 10.16v-18.838l-.896-.614-.896-.587-.92-.537-.946-.513-.949-.486-.997-.437-.999-.433-1.024-.41v15.663l7.194 7.192h.433zm-4.453-.205l-3.174-2.969v3.174h3.2l-.026-.205zm8.472.205h8.472l-.23-1.151-.258-1.127-.306-1.1-.359-1.1-.382-1.076-.463-1.048-.46-1.024-.537-1.023-.562-1-.615-.947-.64-.946-.691-.923-.743-.894-.767-.87-.819-.845-.845-.794.205 15.868zm-26.642-26.027V51.148L65.34 36.764v-1.918l42.764 12.489 27.95-.64v7.627h-11.032l.025-3.814-15.253.333v60.86h-3.787v-1.278zM43.33 126.904h41.052v-6.783H43.33v6.783zm0 9.546h41.052v-6.987H43.33v6.987zm0-18.886h41.052v-6.989H43.33v6.989zm0-9.444h41.052v-6.988H43.33v6.988zm0-9.445h41.052v-6.987H43.33v6.987zm0-9.444h41.052v-6.988H43.33v6.988zm0-9.548h41.052v-6.781H43.33v6.781zm0-9.34h41.052v-6.987H43.33v6.987zm0-9.47h41.052v-6.961H43.33v6.96zm-.205 80.184h98.022V138.6H43.124v2.457z" fill="#233E98"/><mask id="d" fill="#fff"><use xlink:href="#c"/></mask><path stroke="#233E98" stroke-width=".216" mask="url(#d)" d="M43.33 98.675h41.052v-6.987H43.33zm0-9.445h41.052v-6.986H43.33zm0-9.546h41.052v-6.782H43.33zm0-9.341h41.052v-6.987H43.33zm0-9.471h41.052v-6.96H43.33z"/><path fill="#233E98" mask="url(#d)" d="M65.34 163.425l.332.102.308.025.28-.025.255-.051.232-.1.205-.13.205-.18.179-.177.127-.232.129-.256.051-.18.025-.204.025-.178v-.359l-.025-.154-.051-.178-.051-.154-.076-.152-.103-.131-.103-.127-.127-.128-.129-.127-.154-.078-.153-.1-.18-.078-.331-.076-.333-.027h-.256l-.257.078-.256.102-.23.128-.178.178-.179.205-.154.255-.129.258-.051.179-.025.178-.026.179v.332l.026.179.051.155.077.154.077.154.103.127.102.128.128.127.153.104.128.101.178.078z"/><path fill="#194296" mask="url(#d)" d="M171.91 84.163l-2.92.23-.843.078h-1.253l-.488-.052-.46-.05-.385-.103-.306-.103-.281-.102-.281-.154-.258-.154.334 3.994 7.395-.64z"/><path d="M91.93 4.85l-2.251.027-2.226.1-2.228.13-2.201.204-2.175.255-2.176.308-2.15.332-2.15.41-2.098.46-2.099.513-2.072.564-2.074.613-2.02.665-2.023.718-1.972.74-1.97.82-1.946.844-1.918.897-1.895.92-1.869.998-1.816 1.024-1.817 1.076-1.791 1.1-1.741 1.15-1.714 1.205-1.69 1.228-1.664 1.279-1.637 1.306-1.587 1.356-1.561 1.383-1.535 1.432-1.485 1.46-1.485 1.484-1.408 1.534-1.382 1.563-1.356 1.586-1.305 1.639-1.28 1.662-1.229 1.69-1.202 1.715-1.15 1.74-1.102 1.792-1.075 1.816-1.024 1.818-.999 1.868-.92 1.894-.896 1.92-.845 1.945-.82 1.97-.74 1.97-.717 2.023-.666 2.02-.614 2.075-.564 2.073-.51 2.099-.462 2.099-.41 2.15-.357 2.15-.282 2.174-.256 2.176-.205 2.201-.127 2.226-.103 2.226-.025 2.253.025 1.844.051 1.867.103 1.844.127 1.815.18 1.818.206 1.817.254 1.791.281 1.766.308 1.791.359 1.742.384 1.764.434 1.715.462 1.715.484 1.717.513 1.687.562 1.691.589 1.638.642 1.663.638 1.611.691 1.612.716 1.588.745 1.588.792 1.56.818 1.535.819 1.537.871 1.51.895 1.483.948 1.46.947 1.432.973 1.434 1.023 1.407 1.024 1.383 1.075 1.356 1.1 1.356 1.101 1.305 1.151 1.306 1.151 1.279 1.204 1.228 1.229 1.23 1.228 1.201 1.254 1.18 1.305 1.15 1.306 1.127 1.33 1.1 1.356 1.074 1.356 1.05 1.409 1.024 1.407 1 1.459.97 1.458.92 1.459.924 1.51.87 1.511.87 1.535.82 1.561.792 1.561.742 1.588.743 1.612.69 1.613.69 1.637.616 1.664.615 1.663.56 1.689.54 1.69.51 11.338-19.629-1.41-.281-1.38-.333-1.383-.334-1.356-.383-1.356-.41-1.357-.434-1.305-.461-1.33-.511-1.306-.513-1.279-.537-1.28-.589-1.255-.589-1.229-.613-1.227-.667-1.228-.664-1.178-.716-1.204-.718-1.15-.743-1.153-.794-1.125-.792-1.101-.818-1.1-.845-1.075-.845-1.05-.897-1.049-.92-.998-.922-.998-.946-.998-.972-.948-1-.921-.996-.921-1.05-.897-1.05-.87-1.05-.845-1.099-.818-1.1-.819-1.127-.767-1.151-.767-1.153-.718-1.178-.716-1.202-.691-1.204-.64-1.227-.64-1.229-.614-1.255-.562-1.278-.564-1.28-.513-1.306-.51-1.305-.462-1.33-.462-1.331-.408-1.356-.384-1.356-.359-1.358-.332-1.407-.308-1.383-.254-1.407-.232-1.432-.23-1.434-.154-1.434-.153-1.432-.128-1.459-.077-1.485-.05-1.458v-3.174l.076-1.663.103-1.664.153-1.664.179-1.637.23-1.639.256-1.612.308-1.586.357-1.588.384-1.587.41-1.56.461-1.536.511-1.51.513-1.51.589-1.51.588-1.46.639-1.459.666-1.432.716-1.433.743-1.383.767-1.38.794-1.357.845-1.331.843-1.331.897-1.28.92-1.28.973-1.228.974-1.228 1.022-1.204 1.026-1.151 1.074-1.151 1.1-1.128 1.126-1.1 1.127-1.075 1.177-1.023 1.202-1.024 1.23-.972 1.228-.948 1.28-.946 1.28-.896 1.33-.844 1.33-.846 1.357-.793 1.382-.767 1.383-.742 1.432-.716 1.434-.667 1.458-.64 1.459-.589 1.51-.564 1.51-.535 1.51-.513 1.536-.46 1.56-.41 1.587-.384 1.587-.332 1.586-.308 1.613-.28 1.639-.232 1.637-.179 1.663-.154 1.666-.102 1.662-.05 1.69-.026 1.688.026 1.664.05 1.664.102 1.663.154 1.638.179 1.614.231 1.61.281 1.613.308 1.587.332 1.56.384 1.563.41 1.534.46 1.537.513 1.51.535 1.484.564 1.484.59 1.458.64 1.434.666 1.408.716 1.407.742 1.382.767 1.358.793 1.33.846 1.305.844 1.304.896 1.256.946 1.253.948 1.229.972 1.177 1.024 1.178 1.023 1.15 1.075 1.127 1.1 1.075 1.128 1.075 1.15 1.05 1.152.997 1.204.999 1.228.948 1.228.919 1.28.896 1.28.872 1.33.845 1.332.792 1.356.767 1.381.743 1.383.691 1.433.691 1.432.614 1.459.614 1.46.563 1.51.538 1.51.486 1.51.462 1.536.434 1.56.384 1.587.333 1.588.305 1.586.283 1.612.205 1.639.205 1.637.128 1.664.129 1.664.051 1.663.025 1.689-.025 1.485-.051 1.458-.078 1.485-.103 1.459-.153 1.432-.179 1.434-.205 1.434-.232 1.432-.28 1.407-.307 1.383-.307 1.407-.357 1.358-.386 1.356-.435 1.356-.435 1.331-.461 1.33-.511 1.305-.537 1.306-.54 1.28-.587 1.278-.587 1.255-.641 1.23-.665 1.226-.667 1.204-.714 1.202-.744 1.178-.741 1.153-.794 1.15-.794 1.128-.818 1.1-.845 1.1-.87 1.048-.897 1.05-.92 1.05-.922.998-.972.999-.973.972-.998.946-1.024.923-1.024.92-1.048.896-1.075.845-1.102.845-1.126.818-1.124.792-1.128.794-1.176.743-1.177.718-1.203.716-1.204.664-1.228.667-1.254.613-1.255.59-1.278.588-1.28.537-1.307.513-1.305.511-1.33.461-1.33.434-1.357.41-1.382.383-1.358.334-1.405.333-1.383.281 11.312 19.63 1.714-.511 1.689-.54 1.664-.56 1.637-.615 1.64-.615 1.638-.691 1.587-.69 1.586-.743 1.586-.742 1.561-.792 1.51-.82 1.536-.87 1.484-.87 1.486-.923 1.459-.921 1.432-.97 1.407-1 1.41-1.023 1.38-1.05 1.356-1.076 1.332-1.1 1.304-1.125 1.28-1.151 1.28-1.18 1.23-1.202 1.228-1.229 1.176-1.228 1.177-1.279 1.128-1.306 1.125-1.305 1.1-1.356 1.05-1.356 1.05-1.383.997-1.407.999-1.434.946-1.432.922-1.46.897-1.483.868-1.51.845-1.537.818-1.536.77-1.56.74-1.587.743-1.588.666-1.612.665-1.61.614-1.664.59-1.638.562-1.691.538-1.687.484-1.717.463-1.715.409-1.715.41-1.764.332-1.742.333-1.79.28-1.767.232-1.79.229-1.818.155-1.818.154-1.815.076-1.844.078-1.867v-1.844l-.027-2.253-.077-2.226-.153-2.226-.18-2.2-.255-2.177-.309-2.175-.357-2.15-.41-2.15-.46-2.098-.51-2.099-.565-2.073-.613-2.074-.64-2.021-.718-2.023-.767-1.97-.794-1.97-.845-1.945-.895-1.92-.948-1.894-.972-1.868-1.024-1.818-1.073-1.816-1.128-1.792-1.15-1.74-1.178-1.715-1.227-1.69-1.282-1.662-1.305-1.639-1.356-1.586-1.382-1.563-1.432-1.534-1.459-1.484-1.485-1.46-1.535-1.432-1.563-1.383-1.61-1.356-1.614-1.306-1.664-1.279-1.688-1.228-1.714-1.204-1.768-1.151-1.766-1.1-1.817-1.076-1.842-1.024-1.868-.997-1.87-.921-1.918-.897-1.945-.845-1.971-.818-1.996-.741-1.996-.718-2.048-.665-2.047-.613-2.074-.564-2.098-.513-2.124-.46-2.125-.41-2.148-.332-2.178-.308-2.173-.255-2.201-.205-2.228-.129-2.227-.1-2.251-.027zM62.37 160.535l.128-.283.129-.281.127-.232.179-.255.18-.205.178-.205.206-.205.205-.154.23-.153.256-.128.23-.127.256-.103.281-.05.256-.079.282-.024h.64l.357.05.334.079.357.127.232.076.23.129.434.23.333.256.307.281.257.281.178.308.154.281.127.257.103.332.078.332.051.333v.665l-.051.358-.078.333-.103.307-.076.179-.102.232-.13.231-.176.255-.205.28-.283.284-.306.28-.385.282-4.965 3.379-1.075-1.586 2.61-1.793-.33-.154-.308-.18-.282-.204-.256-.23-.231-.257-.204-.255-.18-.281-.152-.306-.103-.31-.102-.305-.052-.334-.026-.333.026-.359.052-.332.076-.359.102-.355zm-5.834-4.71l1.816-1.255 2.535 1.28-4.659 9.368-1.766-.872 3.814-7.651-1.74-.87zM25.388 39.734l.102-.129.103-.1.127-.079.13-.077.153-.05.154-.051.152-.027.154-.024.205.024.205.052.205.076.179.129.205.178.127.205.127.23.053.257v.256l-.026.255-.076.256-.154.231-.103.101-.102.103-.13.102-.127.078-.153.051-.152.052-.13.024h-.383l-.205-.05-.205-.103-.179-.101-.178-.18-.154-.23-.128-.232-.052-.23v-.256l.026-.255.103-.256.127-.23zm-2.201 2.841l.102-.102.13-.105.127-.1.129-.078.127-.051.154-.05.152-.027h.359l.205.052.205.102.178.103.206.178.153.205.103.255.051.232.025.256-.051.255-.076.256-.13.232-.102.102-.127.127-.128.076-.129.078-.127.051-.154.052-.154.025-.153.024-.23-.024-.205-.052-.179-.076-.178-.129-.206-.178-.153-.205-.103-.23-.078-.257v-.254l.027-.258.102-.255.128-.23zm-.179 40.77l-5.553 3.66 5.194.46-.254 2.84-12.413-1.1.256-2.84 4.606.41-4.249-4.404.333-3.607 5.273 5.758 7.14-4.915-.333 3.738zm5.734-20.27l-7.014-2.866 4.864 8.7-.77 1.844-11.746-4.812 1.1-2.636 6.987 2.866-4.888-8.702.769-1.869 11.77 4.864-1.072 2.61zm7.036-11.517l-9.366-7.013 1.714-2.277 9.367 7.011-1.715 2.28zm13.77-15.996l-.05.256-.052.23-.077.23-.103.231-.203.41-.232.358-.28.332-.257.308-.281.256-.257.23-3.276 2.738-7.984-9.571 2.456-2.074.488-.384.306-.205.358-.23.384-.178.435-.18.205-.052.23-.051.232-.05.254-.026.384.026.359.076.357.103.359.154.332.178.308.205.28.257.257.28.205.282.18.28.128.284.102.306.076.282.027.306v.308l-.051.308.28-.078.257-.078.281-.025.281-.024.205.024.384.052.359.077.332.152.306.156.257.205.256.203.205.205.179.206.153.205.154.23.179.28.129.333.127.359.078.408.025.205v.462l-.025.23zm20.117-9.546l-3.43-5.81-.178 7.474-.897.384-5.247-5.273 1.51 6.629-2.661 1.1-2.687-12.617 1.842-.769 5.682 5.707.154-8.087 1.842-.767 6.757 10.928-2.687 1.101zm12.284-2.79l-1.51-12.361 2.815-.36 1.511 12.363-2.816.358zm39.362 143.449l-.18.334-.228.306-.232.281-.28.256-.284.232-.33.203-.333.18-.385.153-.333.104-.332.076-.332.051-.333.027-.307-.027-.306-.051-.31-.053-.307-.1-.333-.128-.332-.18-.306-.18-.281-.23-.334-.255 1.126-1.637.409.358.129.128.18.1.178.105.204.076.359.1.178.027h.154l.332-.026.333-.101.18-.076.154-.078.152-.102.154-.13.129-.127.102-.154.103-.152.076-.18.078-.179.05-.18.026-.203.026-.18-.026-.204-.027-.18-.024-.205-.077-.179-.102-.281-.18-.256-.177-.205-.205-.179-.232-.152-.255-.104-.258-.078h-.46l-.178.026-.18.052-.179.05-.205.077-.127.078-.18.102-.179.128-.18.178-.204.232-.23.28-.767 1.102-.359-6.476 4.325-1.586.64 1.765-2.995 1.101.078 1.126.307-.102.333-.051.307-.052.333-.026.28.026.284.025.254.053.255.076.256.103.257.127.23.127.23.154.204.18.205.179.18.232.18.205.153.254.152.255.13.258.128.306.128.384.076.411.05.409v.383l-.026.382-.074.386-.129.359-.154.357zm9.035-4.249l-.154.333-.179.334-.205.307-.23.282-.256.28-.306.257-.31.205-.332.204-.435.18-.433.152-.436.078-.46.024-.386-.024-.408-.052-.359-.102-.357-.13-.308-.151-.306-.179-.358-.23.919-1.768.437.308.153.129.179.076.179.078.23.05.257.026.229.025.205-.025.231-.027.204-.076.205-.077.178-.101.154-.13.13-.102.126-.154.103-.153.1-.153.079-.153.077-.18.025-.206.027-.178.024-.204-.024-.178-.027-.205-.05-.18-.077-.18-.076-.18-.128-.254-.18-.205-.18-.179-.179-.154-.23-.104-.23-.1-.23-.052h-.486l-.231.051-.232.078-.228.101-.18.102-.127.078-.154.128-.179.153-.155.205-.177.255-.18.308-.616 1.177-1.177-6.372 4.096-2.125.87 1.689-2.841 1.458.205 1.128.41-.18.409-.127.435-.078.408-.025h.258l.255.025.231.051.23.053.23.076.231.101.23.129.204.127.205.13.205.151.18.18.179.206.18.205.152.203.154.23.127.258.18.382.128.385.102.384.053.382v.385l-.026.41-.078.358-.102.383zM105.52 15.216l-.41-.564-.154-.204-.178-.205-.18-.18-.18-.152-.358-.256-.357-.205-.334-.154-.308-.103-.254-.051-.232-.025-.433-.026-.36.026-.332.051-.332.076-.334.103-.28.152-.309.156-.254.203-.258.232-.229.23-.231.28-.179.282-.18.307-.127.334-.128.331-.077.36-.076.384-.025.46.025.435.052.41.101.384.128.357.18.332.179.31.231.28.255.257.28.23.284.203.306.18.332.128.334.129.332.076.36.051.381.025.333-.025.309-.025.306-.077.308-.103.28-.154.283-.153.255-.179.256-.23.513-.486-.385 3.557-.152.076-.564.18-.564.128-.587.076-.59.026h-.41l-.434-.051-.667-.103-.64-.127-.587-.205-.256-.129-.281-.127-.256-.128-.257-.153-.254-.18-.232-.178-.46-.41-.436-.486-.205-.281-.204-.256-.178-.283-.18-.281-.154-.308-.128-.281-.102-.306-.103-.308-.077-.307-.075-.308-.053-.306-.025-.334v-1.022l.025-.359.078-.486.102-.435.101-.436.13-.384.153-.357.154-.36.178-.307.18-.28.178-.282.205-.256.385-.435.357-.333.333-.256.411-.281.434-.256.435-.205.461-.153.461-.129.485-.102.513-.051.537-.025.486.025.513.05.408.052.384.078.385.102.382.128.36.152.358.154.333.205.332.23.127.077-.382 3.533zm18.502 10.646l-.127.282-.154.256-.178.256-.179.255-.205.23-.207.207-.228.205-.232.177-.23.129-.204.102-.23.103-.23.076-.257.05-.231.052-.255.025-.254.026-.31-.026-.306-.025-.28-.051-.257-.051-.488-.154-.408-.154-4.122-1.688 4.684-11.543 2.638 1.074-1.767 4.327 1.485.613.308.127.332.156.333.203.359.23.33.283.308.306.154.205.127.179.128.231.102.23.156.359.1.359.078.383.027.409-.027.385-.051.409-.103.383-.129.41zm12.387 12.746l-.05-6.655-3.198 4.12-2.254-1.74 7.68-9.827 2.226 1.74-2.841 3.635 6.014-1.18 2.866 2.255-7.73 1.305.257 8.649-2.97-2.302zm17.379 13.845l-.256.18-.255.152-.281.13-.283.1-.281.078-.281.078-.308.024-.307.027h-.409l-.31-.051-.305-.078-.308-.103-.254-.127-.257-.154-.23-.154-.231-.153-.384-.333-.307-.332-.255-.308-.154-.23-2.509-3.403 10.083-7.346 4.378 5.988-2.048 1.485-2.685-3.71-1.82 1.329.82 1.101.256.384.231.41.203.41.154.384.103.384.076.408.026.384-.026.385-.05.384-.104.383-.152.358-.18.358-.229.308-.258.332-.28.282-.333.256zm3.097 15.024l-1.101-2.919 3.992.41 6.68-7.397 1.177 3.073-4.298 4.683 6.167.257 1.101 2.917-13.718-1.024zm3.045 24.775l-.23-2.663 2.687-.205-.588-6.833-2.661.23-.232-2.636 5.196-.435.025.256v.154l.027.127.05.128.077.129.154.23.205.205.23.178.28.154.259.129.28.076.383.103.436.076.46.026.513.025.613-.025.667-.026 5.424-.46.743 8.546-9.93.82.102 1.254-5.17.437z" fill="#233E98" mask="url(#d)"/><path d="M91.93 4.85h0l-2.251.027-2.226.1-2.228.13-2.201.204-2.175.255-2.176.308-2.15.332-2.15.41-2.098.46-2.099.513-2.072.564-2.074.613-2.02.665-2.023.718-1.972.74-1.97.82-1.946.844-1.918.897-1.895.92-1.869.998-1.816 1.024-1.817 1.076-1.791 1.1-1.741 1.15-1.714 1.205-1.69 1.228-1.664 1.279-1.637 1.306-1.587 1.356-1.561 1.383-1.535 1.432-1.485 1.46-1.485 1.484-1.408 1.534-1.382 1.563-1.356 1.586-1.305 1.639-1.28 1.662-1.229 1.69-1.202 1.715-1.15 1.74-1.102 1.792-1.075 1.816-1.024 1.818-.999 1.868-.92 1.894-.896 1.92-.845 1.945-.82 1.97-.74 1.97-.717 2.023-.666 2.02-.614 2.075-.564 2.073-.51 2.099-.462 2.099-.41 2.15-.357 2.15-.282 2.174-.256 2.176-.205 2.201-.127 2.226-.103 2.226-.025 2.253.025 1.844.051 1.867.103 1.844.127 1.815.18 1.818.206 1.817.254 1.791.281 1.766.308 1.791.359 1.742.384 1.764.434 1.715.462 1.715.484 1.717.513 1.687.562 1.691.589 1.638.642 1.663.638 1.611.691 1.612.716 1.588.745 1.588.792 1.56.818 1.535.819 1.537.871 1.51.895 1.483.948 1.46.947 1.432.973 1.434 1.023 1.407 1.024 1.383 1.075 1.356 1.1 1.356 1.101 1.305 1.151 1.306 1.151 1.279 1.204 1.228 1.229 1.23 1.228 1.201 1.254 1.18 1.305 1.15 1.306 1.127 1.33 1.1 1.356 1.074 1.356 1.05 1.409 1.024 1.407 1 1.459.97 1.458.92 1.459.924 1.51.87 1.511.87 1.535.82 1.561.792 1.561.742 1.588.743 1.612.69 1.613.69 1.637.616 1.664.615 1.663.56 1.689.54 1.69.51 11.338-19.629-1.41-.281-1.38-.333-1.383-.334-1.356-.383-1.356-.41-1.357-.434-1.305-.461-1.33-.511-1.306-.513-1.279-.537-1.28-.589-1.255-.589-1.229-.613-1.227-.667-1.228-.664-1.178-.716-1.204-.718-1.15-.743-1.153-.794-1.125-.792-1.101-.818-1.1-.845-1.075-.845-1.05-.897-1.049-.92-.998-.922-.998-.946-.998-.972-.948-1-.921-.996-.921-1.05-.897-1.05-.87-1.05-.845-1.099-.818-1.1-.819-1.127-.767-1.151-.767-1.153-.718-1.178-.716-1.202-.691-1.204-.64-1.227-.64-1.229-.614-1.255-.562-1.278-.564-1.28-.513-1.306-.51-1.305-.462-1.33-.462-1.331-.408-1.356-.384-1.356-.359-1.358-.332-1.407-.308-1.383-.254-1.407-.232-1.432-.23-1.434-.154-1.434-.153-1.432-.128-1.459-.077-1.485-.05-1.458v-3.174l.076-1.663.103-1.664.153-1.664.179-1.637.23-1.639.256-1.612.308-1.586.357-1.588.384-1.587.41-1.56.461-1.536.511-1.51.513-1.51.589-1.51.588-1.46.639-1.459.666-1.432.716-1.433.743-1.383.767-1.38.794-1.357.845-1.331.843-1.331.897-1.28.92-1.28.973-1.228.974-1.228 1.022-1.204 1.026-1.151 1.074-1.151 1.1-1.128 1.126-1.1 1.127-1.075 1.177-1.023 1.202-1.024 1.23-.972 1.228-.948 1.28-.946 1.28-.896 1.33-.844 1.33-.846 1.357-.793 1.382-.767 1.383-.742 1.432-.716 1.434-.667 1.458-.64 1.459-.589 1.51-.564 1.51-.535 1.51-.513 1.536-.46 1.56-.41 1.587-.384 1.587-.332 1.586-.308 1.613-.28 1.639-.232 1.637-.179 1.663-.154 1.666-.102 1.662-.05 1.69-.026 1.688.026 1.664.05 1.664.102 1.663.154 1.638.179 1.614.231 1.61.281 1.613.308 1.587.332 1.56.384 1.563.41 1.534.46 1.537.513 1.51.535 1.484.564 1.484.59 1.458.64 1.434.666 1.408.716 1.407.742 1.382.767 1.358.793 1.33.846 1.305.844 1.304.896 1.256.946 1.253.948 1.229.972 1.177 1.024 1.178 1.023 1.15 1.075 1.127 1.1 1.075 1.128 1.075 1.15 1.05 1.152.997 1.204.999 1.228.948 1.228.919 1.28.896 1.28.872 1.33.845 1.332.792 1.356.767 1.381.743 1.383.691 1.433.691 1.432.614 1.459.614 1.46.563 1.51.538 1.51.486 1.51.462 1.536.434 1.56.384 1.587.333 1.588.305 1.586.283 1.612.205 1.639.205 1.637.128 1.664.129 1.664.051 1.663.025 1.689-.025 1.485-.051 1.458-.078 1.485-.103 1.459-.153 1.432-.179 1.434-.205 1.434-.232 1.432-.28 1.407-.307 1.383-.307 1.407-.357 1.358-.386 1.356-.435 1.356-.435 1.331-.461 1.33-.511 1.305-.537 1.306-.54 1.28-.587 1.278-.587 1.255-.641 1.23-.665 1.226-.667 1.204-.714 1.202-.744 1.178-.741 1.153-.794 1.15-.794 1.128-.818 1.1-.845 1.1-.87 1.048-.897 1.05-.92 1.05-.922.998-.972.999-.973.972-.998.946-1.024.923-1.024.92-1.048.896-1.075.845-1.102.845-1.126.818-1.124.792-1.128.794-1.176.743-1.177.718-1.203.716-1.204.664-1.228.667-1.254.613-1.255.59-1.278.588-1.28.537-1.307.513-1.305.511-1.33.461-1.33.434-1.357.41-1.382.383-1.358.334-1.405.333-1.383.281 11.312 19.63 1.714-.511 1.689-.54 1.664-.56 1.637-.615 1.64-.615 1.638-.691 1.587-.69 1.586-.743 1.586-.742 1.561-.792 1.51-.82 1.536-.87 1.484-.87 1.486-.923 1.459-.921 1.432-.97 1.407-1 1.41-1.023 1.38-1.05 1.356-1.076 1.332-1.1 1.304-1.125 1.28-1.151 1.28-1.18 1.23-1.202 1.228-1.229 1.176-1.228 1.177-1.279 1.128-1.306 1.125-1.305 1.1-1.356 1.05-1.356 1.05-1.383.997-1.407.999-1.434.946-1.432.922-1.46.897-1.483.868-1.51.845-1.537.818-1.536.77-1.56.74-1.587.743-1.588.666-1.612.665-1.61.614-1.664.59-1.638.562-1.691.538-1.687.484-1.717.463-1.715.409-1.715.41-1.764.332-1.742.333-1.79.28-1.767.232-1.79.229-1.818.155-1.818.154-1.815.076-1.844.078-1.867v-1.844l-.027-2.253-.077-2.226-.153-2.226-.18-2.2-.255-2.177-.309-2.175-.357-2.15-.41-2.15-.46-2.098-.51-2.099-.565-2.073-.613-2.074-.64-2.021-.718-2.023-.767-1.97-.794-1.97-.845-1.945-.895-1.92-.948-1.894-.972-1.868-1.024-1.818-1.073-1.816-1.128-1.792-1.15-1.74-1.178-1.715-1.227-1.69-1.282-1.662-1.305-1.639-1.356-1.586-1.382-1.563-1.432-1.534-1.459-1.484-1.485-1.46-1.535-1.432-1.563-1.383-1.61-1.356-1.614-1.306-1.664-1.279-1.688-1.228-1.714-1.204-1.768-1.151-1.766-1.1-1.817-1.076-1.842-1.024-1.868-.997-1.87-.921-1.918-.897-1.945-.845-1.971-.818-1.996-.741-1.996-.718-2.048-.665-2.047-.613-2.074-.564-2.098-.513-2.124-.46-2.125-.41-2.148-.332-2.178-.308-2.173-.255-2.201-.205-2.228-.129-2.227-.1-2.251-.027zM62.37 160.535h0l.128-.283.129-.281.127-.232.179-.255.18-.205.178-.205.206-.205.205-.154.23-.153.256-.128.23-.127.256-.103.281-.05.256-.079.282-.024h.64l.357.05.334.079.357.127.232.076.23.129.434.23.333.256.307.281.257.281.178.308.154.281.127.257.103.332.078.332.051.333v.665l-.051.358-.078.333-.103.307-.076.179-.102.232-.13.231-.176.255-.205.28-.283.284-.306.28-.385.282-4.965 3.379-1.075-1.586 2.61-1.793-.33-.154-.308-.18-.282-.204-.256-.23-.231-.257-.204-.255-.18-.281-.152-.306-.103-.31-.102-.305-.052-.334-.026-.333.026-.359.052-.332.076-.359.102-.355zm-5.834-4.71l1.816-1.255 2.535 1.28-4.659 9.368-1.766-.872 3.814-7.651-1.74-.87zM25.388 39.734h0l.102-.129.103-.1.127-.079.13-.077.153-.05.154-.051.152-.027.154-.024.205.024.205.052.205.076.179.129.205.178.127.205.127.23.053.257v.256l-.026.255-.076.256-.154.231-.103.101-.102.103-.13.102-.127.078-.153.051-.152.052-.13.024h-.383l-.205-.05-.205-.103-.179-.101-.178-.18-.154-.23-.128-.232-.052-.23v-.256l.026-.255.103-.256.127-.23zm-2.201 2.841h0l.102-.102.13-.105.127-.1.129-.078.127-.051.154-.05.152-.027h.359l.205.052.205.102.178.103.206.178.153.205.103.255.051.232.025.256-.051.255-.076.256-.13.232-.102.102-.127.127-.128.076-.129.078-.127.051-.154.052-.154.025-.153.024-.23-.024-.205-.052-.179-.076-.178-.129-.206-.178-.153-.205-.103-.23-.078-.257v-.254l.027-.258.102-.255.128-.23zm-.179 40.77l-5.553 3.66 5.194.46-.254 2.84-12.413-1.1.256-2.84 4.606.41-4.249-4.404.333-3.607 5.273 5.758 7.14-4.915-.333 3.738zm5.734-20.27l-7.014-2.866 4.864 8.7-.77 1.844-11.746-4.812 1.1-2.636 6.987 2.866-4.888-8.702.769-1.869 11.77 4.864-1.072 2.61zm7.036-11.517l-9.366-7.013 1.714-2.277 9.367 7.011-1.715 2.28zm13.77-15.996h0l-.05.256-.052.23-.077.23-.103.231-.203.41-.232.358-.28.332-.257.308-.281.256-.257.23-3.276 2.738-7.984-9.571 2.456-2.074.488-.384.306-.205.358-.23.384-.178.435-.18.205-.052.23-.051.232-.05.254-.026.384.026.359.076.357.103.359.154.332.178.308.205.28.257.257.28.205.282.18.28.128.284.102.306.076.282.027.306v.308l-.051.308.28-.078.257-.078.281-.025.281-.024.205.024.384.052.359.077.332.152.306.156.257.205.256.203.205.205.179.206.153.205.154.23.179.28.129.333.127.359.078.408.025.205v.462l-.025.23zm20.117-9.546l-3.43-5.81-.178 7.474-.897.384-5.247-5.273 1.51 6.629-2.661 1.1-2.687-12.617 1.842-.769 5.682 5.707.154-8.087 1.842-.767 6.757 10.928-2.687 1.101zm12.284-2.79l-1.51-12.361 2.815-.36 1.511 12.363-2.816.358zm39.362 143.449h0l-.18.334-.228.306-.232.281-.28.256-.284.232-.33.203-.333.18-.385.153-.333.104-.332.076-.332.051-.333.027-.307-.027-.306-.051-.31-.053-.307-.1-.333-.128-.332-.18-.306-.18-.281-.23-.334-.255 1.126-1.637.409.358.129.128.18.1.178.105.204.076.359.1.178.027h.154l.332-.026.333-.101.18-.076.154-.078.152-.102.154-.13.129-.127.102-.154.103-.152.076-.18.078-.179.05-.18.026-.203.026-.18-.026-.204-.027-.18-.024-.205-.077-.179-.102-.281-.18-.256-.177-.205-.205-.179-.232-.152-.255-.104-.258-.078h-.46l-.178.026-.18.052-.179.05-.205.077-.127.078-.18.102-.179.128-.18.178-.204.232-.23.28-.767 1.102-.359-6.476 4.325-1.586.64 1.765-2.995 1.101.078 1.126.307-.102.333-.051.307-.052.333-.026.28.026.284.025.254.053.255.076.256.103.257.127.23.127.23.154.204.18.205.179.18.232.18.205.153.254.152.255.13.258.128.306.128.384.076.411.05.409v.383l-.026.382-.074.386-.129.359-.154.357zm9.035-4.249h0l-.154.333-.179.334-.205.307-.23.282-.256.28-.306.257-.31.205-.332.204-.435.18-.433.152-.436.078-.46.024-.386-.024-.408-.052-.359-.102-.357-.13-.308-.151-.306-.179-.358-.23.919-1.768.437.308.153.129.179.076.179.078.23.05.257.026.229.025.205-.025.231-.027.204-.076.205-.077.178-.101.154-.13.13-.102.126-.154.103-.153.1-.153.079-.153.077-.18.025-.206.027-.178.024-.204-.024-.178-.027-.205-.05-.18-.077-.18-.076-.18-.128-.254-.18-.205-.18-.179-.179-.154-.23-.104-.23-.1-.23-.052h-.486l-.231.051-.232.078-.228.101-.18.102-.127.078-.154.128-.179.153-.155.205-.177.255-.18.308-.616 1.177-1.177-6.372 4.096-2.125.87 1.689-2.841 1.458.205 1.128.41-.18.409-.127.435-.078.408-.025h.258l.255.025.231.051.23.053.23.076.231.101.23.129.204.127.205.13.205.151.18.18.179.206.18.205.152.203.154.23.127.258.18.382.128.385.102.384.053.382v.385l-.026.41-.078.358-.102.383zM105.52 15.216l-.41-.564-.154-.204-.178-.205-.18-.18-.18-.152-.358-.256-.357-.205-.334-.154-.308-.103-.254-.051-.232-.025-.433-.026-.36.026-.332.051-.332.076-.334.103-.28.152-.309.156-.254.203-.258.232-.229.23-.231.28-.179.282-.18.307-.127.334-.128.331-.077.36-.076.384-.025.46.025.435.052.41.101.384.128.357.18.332.179.31.231.28.255.257.28.23.284.203.306.18.332.128.334.129.332.076.36.051.381.025.333-.025.309-.025.306-.077.308-.103.28-.154.283-.153.255-.179.256-.23.513-.486-.385 3.557-.152.076-.564.18-.564.128-.587.076-.59.026h-.41l-.434-.051-.667-.103-.64-.127-.587-.205-.256-.129-.281-.127-.256-.128-.257-.153-.254-.18-.232-.178-.46-.41-.436-.486-.205-.281-.204-.256-.178-.283-.18-.281-.154-.308-.128-.281-.102-.306-.103-.308-.077-.307-.075-.308-.053-.306-.025-.334v-1.022l.025-.359.078-.486.102-.435.101-.436.13-.384.153-.357.154-.36.178-.307.18-.28.178-.282.205-.256.385-.435.357-.333.333-.256.411-.281.434-.256.435-.205.461-.153.461-.129.485-.102.513-.051.537-.025.486.025.513.05.408.052.384.078.385.102.382.128.36.152.358.154.333.205.332.23.127.077-.382 3.533zm18.502 10.646h0l-.127.282-.154.256-.178.256-.179.255-.205.23-.207.207-.228.205-.232.177-.23.129-.204.102-.23.103-.23.076-.257.05-.231.052-.255.025-.254.026-.31-.026-.306-.025-.28-.051-.257-.051-.488-.154-.408-.154-4.122-1.688 4.684-11.543 2.638 1.074-1.767 4.327 1.485.613.308.127.332.156.333.203.359.23.33.283.308.306.154.205.127.179.128.231.102.23.156.359.1.359.078.383.027.409-.027.385-.051.409-.103.383-.129.41zm12.387 12.746l-.05-6.655-3.198 4.12-2.254-1.74 7.68-9.827 2.226 1.74-2.841 3.635 6.014-1.18 2.866 2.255-7.73 1.305.257 8.649-2.97-2.302zm17.379 13.845h0l-.256.18-.255.152-.281.13-.283.1-.281.078-.281.078-.308.024-.307.027h-.409l-.31-.051-.305-.078-.308-.103-.254-.127-.257-.154-.23-.154-.231-.153-.384-.333-.307-.332-.255-.308-.154-.23-2.509-3.403 10.083-7.346 4.378 5.988-2.048 1.485-2.685-3.71-1.82 1.329.82 1.101.256.384.231.41.203.41.154.384.103.384.076.408.026.384-.026.385-.05.384-.104.383-.152.358-.18.358-.229.308-.258.332-.28.282-.333.256zm3.097 15.024l-1.101-2.919 3.992.41 6.68-7.397 1.177 3.073-4.298 4.683 6.167.257 1.101 2.917-13.718-1.024zm3.045 24.775l-.23-2.663 2.687-.205-.588-6.833-2.661.23-.232-2.636 5.196-.435.025.256v.154l.027.127.05.128.077.129.154.23.205.205.23.178.28.154.259.129.28.076.383.103.436.076.46.026.513.025.613-.025.667-.026 5.424-.46.743 8.546-9.93.82.102 1.254-5.17.437z" stroke="#233E98" stroke-width=".216" mask="url(#d)"/><path stroke="#FFF103" stroke-width=".216" mask="url(#d)" d="M91.93 4.85h0l-2.251.027-2.226.1-2.228.13-2.201.204-2.175.255-2.176.308-2.15.332-2.15.41-2.098.46-2.099.513-2.072.564-2.074.613-2.02.665-2.023.718-1.972.74-1.97.82-1.946.844-1.918.897-1.895.92-1.869.998-1.816 1.024-1.817 1.076-1.791 1.1-1.741 1.15-1.714 1.205-1.69 1.228-1.664 1.279-1.637 1.306-1.587 1.356-1.561 1.383-1.535 1.432-1.485 1.46-1.485 1.484-1.408 1.534-1.382 1.563-1.356 1.586-1.305 1.639-1.28 1.662-1.229 1.69-1.202 1.715-1.15 1.74-1.102 1.792-1.075 1.816-1.024 1.818-.999 1.868-.92 1.894-.896 1.92-.845 1.945-.82 1.97-.74 1.97-.717 2.023-.666 2.02-.614 2.075-.564 2.073-.51 2.099-.462 2.099-.41 2.15-.357 2.15-.282 2.174-.256 2.176-.205 2.201-.127 2.226-.103 2.226-.025 2.253.025 1.844.051 1.867.103 1.844.127 1.815.18 1.818.206 1.817.254 1.791.281 1.766.308 1.791.359 1.742.384 1.764.434 1.715.462 1.715.484 1.717.513 1.687.562 1.691.589 1.638.642 1.663.638 1.611.691 1.612.716 1.588.745 1.588.792 1.56.818 1.535.819 1.537.871 1.51.895 1.483.948 1.46.947 1.432.973 1.434 1.023 1.407 1.024 1.383 1.075 1.356 1.1 1.356 1.101 1.305 1.151 1.306 1.151 1.279 1.204 1.228 1.229 1.23 1.228 1.201 1.254 1.18 1.305 1.15 1.306 1.127 1.33 1.1 1.356 1.074 1.356 1.05 1.409 1.024 1.407 1 1.459.97 1.458.92 1.459.924 1.51.87 1.511.87 1.535.82 1.561.792 1.561.742 1.588.743 1.612.69 1.613.69 1.637.616 1.664.615 1.663.56 1.689.54 1.69.51 11.338-19.629-1.41-.281-1.38-.333-1.383-.334-1.356-.383-1.356-.41-1.357-.434-1.305-.461-1.33-.511-1.306-.513-1.279-.537-1.28-.589-1.255-.589-1.229-.613-1.227-.667-1.228-.664-1.178-.716-1.204-.718-1.15-.743-1.153-.794-1.125-.792-1.101-.818-1.1-.845-1.075-.845-1.05-.897-1.049-.92-.998-.922-.998-.946-.998-.972-.948-1-.921-.996-.921-1.05-.897-1.05-.87-1.05-.845-1.099-.818-1.1-.819-1.127-.767-1.151-.767-1.153-.718-1.178-.716-1.202-.691-1.204-.64-1.227-.64-1.229-.614-1.255-.562-1.278-.564-1.28-.513-1.306-.51-1.305-.462-1.33-.462-1.331-.408-1.356-.384-1.356-.359-1.358-.332-1.407-.308-1.383-.254-1.407-.232-1.432-.23-1.434-.154-1.434-.153-1.432-.128-1.459-.077-1.485-.05-1.458v-3.174l.076-1.663.103-1.664.153-1.664.179-1.637.23-1.639.256-1.612.308-1.586.357-1.588.384-1.587.41-1.56.461-1.536.511-1.51.513-1.51.589-1.51.588-1.46.639-1.459.666-1.432.716-1.433.743-1.383.767-1.38.794-1.357.845-1.331.843-1.331.897-1.28.92-1.28.973-1.228.974-1.228 1.022-1.204 1.026-1.151 1.074-1.151 1.1-1.128 1.126-1.1 1.127-1.075 1.177-1.023 1.202-1.024 1.23-.972 1.228-.948 1.28-.946 1.28-.896 1.33-.844 1.33-.846 1.357-.793 1.382-.767 1.383-.742 1.432-.716 1.434-.667 1.458-.64 1.459-.589 1.51-.564 1.51-.535 1.51-.513 1.536-.46 1.56-.41 1.587-.384 1.587-.332 1.586-.308 1.613-.28 1.639-.232 1.637-.179 1.663-.154 1.666-.102 1.662-.05 1.69-.026 1.688.026 1.664.05 1.664.102 1.663.154 1.638.179 1.614.231 1.61.281 1.613.308 1.587.332 1.56.384 1.563.41 1.534.46 1.537.513 1.51.535 1.484.564 1.484.59 1.458.64 1.434.666 1.408.716 1.407.742 1.382.767 1.358.793 1.33.846 1.305.844 1.304.896 1.256.946 1.253.948 1.229.972 1.177 1.024 1.178 1.023 1.15 1.075 1.127 1.1 1.075 1.128 1.075 1.15 1.05 1.152.997 1.204.999 1.228.948 1.228.919 1.28.896 1.28.872 1.33.845 1.332.792 1.356.767 1.381.743 1.383.691 1.433.691 1.432.614 1.459.614 1.46.563 1.51.538 1.51.486 1.51.462 1.536.434 1.56.384 1.587.333 1.588.305 1.586.283 1.612.205 1.639.205 1.637.128 1.664.129 1.664.051 1.663.025 1.689-.025 1.485-.051 1.458-.078 1.485-.103 1.459-.153 1.432-.179 1.434-.205 1.434-.232 1.432-.28 1.407-.307 1.383-.307 1.407-.357 1.358-.386 1.356-.435 1.356-.435 1.331-.461 1.33-.511 1.305-.537 1.306-.54 1.28-.587 1.278-.587 1.255-.641 1.23-.665 1.226-.667 1.204-.714 1.202-.744 1.178-.741 1.153-.794 1.15-.794 1.128-.818 1.1-.845 1.1-.87 1.048-.897 1.05-.92 1.05-.922.998-.972.999-.973.972-.998.946-1.024.923-1.024.92-1.048.896-1.075.845-1.102.845-1.126.818-1.124.792-1.128.794-1.176.743-1.177.718-1.203.716-1.204.664-1.228.667-1.254.613-1.255.59-1.278.588-1.28.537-1.307.513-1.305.511-1.33.461-1.33.434-1.357.41-1.382.383-1.358.334-1.405.333-1.383.281 11.312 19.63 1.714-.511 1.689-.54 1.664-.56 1.637-.615 1.64-.615 1.638-.691 1.587-.69 1.586-.743 1.586-.742 1.561-.792 1.51-.82 1.536-.87 1.484-.87 1.486-.923 1.459-.921 1.432-.97 1.407-1 1.41-1.023 1.38-1.05 1.356-1.076 1.332-1.1 1.304-1.125 1.28-1.151 1.28-1.18 1.23-1.202 1.228-1.229 1.176-1.228 1.177-1.279 1.128-1.306 1.125-1.305 1.1-1.356 1.05-1.356 1.05-1.383.997-1.407.999-1.434.946-1.432.922-1.46.897-1.483.868-1.51.845-1.537.818-1.536.77-1.56.74-1.587.743-1.588.666-1.612.665-1.61.614-1.664.59-1.638.562-1.691.538-1.687.484-1.717.463-1.715.409-1.715.41-1.764.332-1.742.333-1.79.28-1.767.232-1.79.229-1.818.155-1.818.154-1.815.076-1.844.078-1.867v-1.844l-.027-2.253-.077-2.226-.153-2.226-.18-2.2-.255-2.177-.309-2.175-.357-2.15-.41-2.15-.46-2.098-.51-2.099-.565-2.073-.613-2.074-.64-2.021-.718-2.023-.767-1.97-.794-1.97-.845-1.945-.895-1.92-.948-1.894-.972-1.868-1.024-1.818-1.073-1.816-1.128-1.792-1.15-1.74-1.178-1.715-1.227-1.69-1.282-1.662-1.305-1.639-1.356-1.586-1.382-1.563-1.432-1.534-1.459-1.484-1.485-1.46-1.535-1.432-1.563-1.383-1.61-1.356-1.614-1.306-1.664-1.279-1.688-1.228-1.714-1.204-1.768-1.151-1.766-1.1-1.817-1.076-1.842-1.024-1.868-.997-1.87-.921-1.918-.897-1.945-.845-1.971-.818-1.996-.741-1.996-.718-2.048-.665-2.047-.613-2.074-.564-2.098-.513-2.124-.46-2.125-.41-2.148-.332-2.178-.308-2.173-.255-2.201-.205-2.228-.129-2.227-.1z"/><path fill="#194296" mask="url(#d)" d="M41.666 30.827l-.282.051-.282.078-.281.152-.282.205-.307.281 1.612 1.947.334-.257.179-.18.178-.178.13-.179.102-.18.05-.179.052-.152v-.155l-.026-.153-.026-.153-.076-.156-.103-.177-.103-.154-.205-.18-.205-.152-.23-.078zm78.441-8.062l-1.048-.435-1.024 2.56 1.024.409.18.077.255.076.306.076.359.027h.205l.18-.051.179-.052.127-.102.154-.103.127-.127.104-.18.076-.177.076-.283.053-.23-.026-.256-.051-.23-.076-.154-.105-.127-.127-.13-.127-.127-.179-.129-.18-.127-.23-.102zM45.428 34.077l-.179.027-.18.05-.179.052-.18.076-.306.179-.332.231-.282.23-.46.41 1.79 2.124.564-.487.23-.178.256-.256.128-.154.129-.179.127-.18.078-.204.05-.205.026-.205-.027-.18-.05-.179-.052-.153-.076-.128-.154-.23-.154-.153-.205-.154-.1-.051-.155-.052-.129-.024zM151.51 47.028l-2.174 1.586.511.69.205.232.18.23.205.179.18.154.202.102.18.103.18.051h.358l.179-.051.178-.078.18-.1.128-.13.103-.102.102-.103.078-.127.05-.128.05-.129.027-.153v-.128l-.026-.154-.025-.178-.103-.308-.178-.357-.257-.384z"/><path fill="#233E98" mask="url(#d)" d="M98.706 175.225h13.026l-6.704-11.081z"/><path stroke="#22378A" stroke-width=".015" mask="url(#d)" d="M98.706 175.225h13.026l-6.704-11.081z"/><path fill="#233E98" mask="url(#d)" d="M72.808 175.225h13.027l-6.706-11.081z"/><path stroke="#22378A" stroke-width=".015" mask="url(#d)" d="M72.808 175.225h13.027l-6.706-11.081z"/><path fill="#233E98" mask="url(#d)" d="M85.757 175.225h13.026l-6.706-11.081z"/><path stroke="#22378A" stroke-width=".015" mask="url(#d)" d="M85.757 175.225h13.026l-6.706-11.081z"/><path fill="#233E98" mask="url(#d)" d="M79.129 164.348h13.026l-6.705-11.08z"/><path stroke="#22378A" stroke-width=".015" mask="url(#d)" d="M79.129 164.348h13.026l-6.705-11.08z"/><path fill="#233E98" mask="url(#d)" d="M92.078 164.348h13.026l-6.705-11.08z"/><path stroke="#22378A" stroke-width=".015" mask="url(#d)" d="M92.078 164.348h13.026l-6.705-11.08z"/><path fill="#233E98" mask="url(#d)" d="M85.245 153.625h13.053l-6.706-11.08z"/><path stroke="#22378A" stroke-width=".015" mask="url(#d)" d="M85.245 153.625h13.053l-6.706-11.08z"/><path stroke="#233E98" stroke-width=".619" mask="url(#d)" d="M117.85 179.602l-4.305 1.348 6.07-1.886 1.765-.59 1.742-.613 1.715-.639 1.687-.666 1.69-.716 1.662-.743 1.663-.767 1.64-.82 1.612-.844 1.586-.871 1.587-.895 1.536-.921 1.535-.973 1.535-.972 1.485-1.024 1.46-1.05 1.457-1.073 1.434-1.1 1.407-1.128 1.381-1.15 1.356-1.178 1.331-1.229 1.332-1.228 1.28-1.254 1.253-1.28 1.255-1.331 1.201-1.33 1.177-1.358 1.178-1.382 1.126-1.406 1.101-1.409 1.075-1.458 1.049-1.457 1.024-1.51.998-1.512.946-1.534.948-1.561.895-1.562.871-1.587.844-1.611.793-1.639.792-1.637.745-1.688.716-1.664.665-1.715.666-1.715.613-1.74.564-1.74.563-1.766.51-1.79.46-1.792.437-1.792.408-1.844.36-1.816.332-1.867.307-1.842.257-1.896.205-1.868.178-1.894.13-1.92.1-1.918.078-1.92v-1.945l-.027-2.353-.077-2.355-.152-2.329-.205-2.305-.257-2.302-.332-2.277-.359-2.252-.433-2.253-.487-2.226-.537-2.2-.589-2.176-.641-2.15-.69-2.15-.743-2.098-.792-2.098-.845-2.048-.896-2.047-.946-2.023-.972-1.97-1.05-1.97-1.075-1.919-1.127-1.895-1.15-1.867-1.23-1.842L166.449 39l-1.28-1.766-1.33-1.74-1.382-1.715-1.435-1.688-1.433-1.639-1.51-1.586-1.536-1.587-1.56-1.535-1.612-1.485-1.638-1.459-1.664-1.407-1.715-1.381-1.738-1.331-1.791-1.307-1.793-1.253-1.844-1.202-1.867-1.178-1.893-1.126-1.945-1.075-1.947-1.024-1.996-.997-1.996-.921-2.045-.896-2.074-.845-2.072-.794-2.125-.741-2.124-.691-2.15-.64-2.2-.59-2.202-.537-2.2-.486-2.252-.435-2.252-.383-2.279-.308-2.302-.255-2.304-.206L96.634.64 94.279.537 91.926.512 89.57.537 87.216.64l-2.329.152-2.303.206-2.304.255-2.277.308-2.252.383-2.251.435-2.228.486-2.2.538-2.176.589-2.15.64-2.15.69-2.098.742-2.098.794-2.048.845-2.047.896-2.02.921-1.972.997-1.971 1.024-1.919 1.075-1.893 1.126-1.869 1.178-1.842 1.202L39 17.375l-1.766 1.307-1.74 1.331-1.715 1.38-1.688 1.408-1.639 1.459-1.586 1.485-1.587 1.535-1.535 1.587-1.485 1.586-1.459 1.639-1.407 1.688-1.381 1.715-1.331 1.74-1.305 1.766-1.255 1.818-1.202 1.842-1.178 1.867-1.126 1.895-1.075 1.919-1.024 1.97-.997 1.97-.921 2.023-.896 2.047-.845 2.048-.793 2.098-.742 2.099-.691 2.15-.64 2.15-.59 2.174-.537 2.201-.486 2.226-.435 2.253-.383 2.252-.306 2.277-.257 2.302-.205 2.305-.153 2.329-.103 2.355-.025 2.353.025 1.945.051 1.92.103 1.918.154 1.895.178 1.919.205 1.868.257 1.87.28 1.868.333 1.842.384 1.84.383 1.82.435 1.817.487 1.791.512 1.791.538 1.767.588 1.74.614 1.739.64 1.715.691 1.688.691 1.69.743 1.663.794 1.638.792 1.638.845 1.612.87 1.586.921 1.588.921 1.56.973 1.51.972 1.537 1.024 1.483 1.05 1.459 1.073 1.458 1.101 1.434 1.127 1.406 1.177 1.358 1.177 1.382 1.203 1.33 1.253 1.305 1.255 1.281 1.28 1.254 1.305 1.253 1.356 1.202 1.356 1.178 1.381 1.151 1.41 1.128 1.407 1.1 1.458 1.074 1.484 1.049 1.485 1.024 1.51.998 1.534.946 1.561.923 1.563.92 1.61.871 1.613.819 1.613.818 1.663.77 1.664.74 1.688.718 1.69.665 1.714.665 1.741.588 1.765.589 2.971 1.024 3.685 1.02"/></g></g></svg>