<svg width="184" height="184" xmlns="http://www.w3.org/2000/svg"><g fill="none" fill-rule="evenodd"><path d="M92 184c-50.81 0-92-41.188-92-92C0 41.19 41.19 0 92 0c50.809 0 92 41.19 92 92 0 50.812-41.191 92-92 92z" fill="#FFF"/><path d="M149.49 96.26l-7.842-.008 6.593-14.678 3.932 8.758-2.684 5.927zm15.998 13.707l-10.659-23.74 7.221-15.952-.66-.3-6.958 15.37-3.836-8.544h-4.709l-14.893 33.166h4.498l4.318-9.616 7.822.009-7.642 16.883.66.299 11.92-26.327 8.42 18.752h4.498zM67.048 96.26l-7.408-.008 6.411-14.163 3.692 8.217-2.695 5.953zm12.56-25.985l-.66-.3L72 85.317 68.31 77.1l3.091-6.825-.661-.3-3.09 6.826h-3.63l2.955-6.526-.661-.3-21.402 47.268.661.299 3.429-7.575h3.631l-3.295 7.276.663.299 7.782-17.19 7.407.008-7.644 16.883.66.299L70.14 91.189l8.432 18.778h4.498L72.397 86.201l7.212-15.926zM31.553 90.797c-3.31-1.143-5.46-2.132-6.452-2.97-.897-.835-1.346-1.823-1.346-2.97 0-1.391.572-2.521 1.718-3.387 1.145-.928 2.552-1.394 4.224-1.394 1.575 0 2.915.411 4.014 1.232a5.944 5.944 0 012.013 2.594l-3.27 7.223a28.39 28.39 0 00-.9-.328zm3.48 6.731c1.022.99 1.531 2.181 1.531 3.576 0 1.67-.618 3.008-1.855 4.013-1.239 1.006-2.83 1.51-4.781 1.51a6.766 6.766 0 01-2.552-.49c-.26-.106-.504-.245-.752-.377l4.705-10.392c1.73.703 2.966 1.423 3.704 2.16zm6.518-26.493l-3.746 8.272a10.729 10.729 0 00-1.613-1.364c-1.854-1.3-4.051-1.95-6.588-1.95-2.879 0-5.309.866-7.286 2.599-1.95 1.733-2.925 3.821-2.925 6.266 0 3.496 1.763 6.142 5.29 7.936.651.343 2.306.992 4.966 1.948.351.12.684.24 1.005.361l-4.658 10.29a7.92 7.92 0 01-.825-.603 8.69 8.69 0 01-1.74-2.062 10.6 10.6 0 01-1.16-2.694l-4.085 1.67c.804 2.785 2.257 4.982 4.363 6.593.53.405 1.081.758 1.652 1.061l-4.05 8.947.659.298 4.044-8.932c1.523.687 3.181 1.036 4.982 1.036 3.093 0 5.723-.864 7.89-2.596 2.134-1.764 3.203-4.101 3.203-7.007 0-2.415-.72-4.45-2.16-6.104-1.201-1.384-3.088-2.585-5.637-3.613l9.078-20.054-.66-.298zm73.904 32.805c-2.197 1.858-4.952 2.785-8.259 2.785a13.43 13.43 0 01-4.055-.603l4.454-9.84h11.665c-.34 3.25-1.61 5.802-3.805 7.658zm-17.453-.974c-2.473-2.536-3.712-5.71-3.712-9.517 0-3.805 1.24-6.973 3.712-9.511 2.508-2.506 5.57-3.761 9.194-3.761 1.855 0 3.594.348 5.218 1.046.348.147.662.323.977.497l-10.938 24.161c-1.638-.625-3.123-1.59-4.45-2.915zm11.399-10.675l9.923-21.915-.66-.3-3.528 7.79a14.63 14.63 0 00-1.028-.474c-2.163-.865-4.472-1.299-6.912-1.299-4.828 0-8.913 1.67-12.254 5.012-3.342 3.342-5.014 7.457-5.014 12.344 0 4.892 1.672 9.008 5.014 12.35 1.734 1.732 3.674 3.006 5.81 3.84l-3.488 7.703.661.3 3.513-7.762c1.787.608 3.701.93 5.758.93 5.04 0 9.11-1.64 12.203-4.921 2.754-2.754 4.131-6.45 4.131-11.092 0-.804-.077-1.639-.233-2.506h-13.896z" fill="#40516F"/></g></svg>